<svg xmlns="http://www.w3.org/2000/svg" width="900" height="700"><rect width="900" height="700" x="0" y="0" fill="#FFFFFF" id="backgorund"/><g transform="translate(450,350)" id="viz"><path fill="rgb(94, 79, 162)" display="" d="M0.49999927912375536,-225.66611275325616A225.66666666666666,225.66666666666666,0,0,1,206.26481585729263,91.54381565022076L103.69013608292977,45.747132407922A113.33333333333333,113.33333333333333,0,0,0,0.49999927912372194,-113.33223038997035Z"><title>Modern orchestra</title></path><path fill="rgb(253, 190, 112)" display="" d="M205.85713283012984,92.45693758395161A225.66666666666666,225.66666666666666,0,0,1,-101.06446415548523,201.77070780816794L-50.53349628137557,101.4436306429568A113.33333333333333,113.33333333333333,0,0,0,103.28245305576698,46.66025434165285Z"><title>Early Romantic orchestra</title></path><path fill="rgb(190, 229, 160)" display="" d="M-101.95757788402112,201.32088008070156A225.66666666666666,225.66666666666666,0,0,1,-153.61377326299245,-165.3125921046258L-77.32938318639005,-82.85294768719396A113.33333333333333,113.33333333333333,0,0,0,-51.426610009911535,100.99380291549036Z"><title>Late Romantic orchestra</title></path><path fill="rgb(158, 1, 66)" display="" d="M-152.87971579256381,-165.99167733241737A225.66666666666666,225.66666666666666,0,0,1,-0.4999992791238331,-225.66611275325616L-0.4999992791237108,-113.33223038997035A113.33333333333333,113.33333333333333,0,0,0,-76.59532571596132,-83.53203291498559Z"><title>Classical orchestra</title></path><path fill="rgb(94, 79, 162)" display="" d="M0.4999992791237768,-338.9996312692993A339,339,0,0,1,20.57645208633296,-338.3749541847606L13.592718120714611,-226.25873638794275A226.66666666666666,226.66666666666666,0,0,0,0.49999927912372405,-226.66611519699774Z"><title>Baritone horn</title></path><path fill="rgb(94, 79, 162)" display="" d="M21.574516244502995,-338.31278463696236A339,339,0,0,1,41.573297155997054,-336.4411701376322L27.632847934762957,-224.97600648245145A226.66666666666666,226.66666666666666,0,0,0,14.590782278884555,-226.1965668401445Z"><title>Bass Drum</title></path><path fill="rgb(94, 79, 162)" display="" d="M42.56556559775278,-336.3170715639386A339,339,0,0,1,62.40930321529224,-333.20576056272154L41.56607162830744,-222.82288811333586A226.66666666666666,226.66666666666666,0,0,0,28.625116376518587,-224.85190790875788Z"><title>Bassoons</title></path><path fill="rgb(94, 79, 162)" display="" d="M63.391937046797686,-333.020213076406A339,339,0,0,1,83.00385980452727,-328.6812426311401L55.33848426564584,-219.80771127728582A226.66666666666666,226.66666666666666,0,0,0,42.5487054598128,-222.6373406270203Z"><title>Celesta</title></path><path fill="rgb(94, 79, 162)" display="" d="M83.97305740638187,-328.4349640793813A339,339,0,0,1,103.27729058510515,-322.8851208237997L68.89680305781226,-215.9421411077301A226.66666666666666,226.66666666666666,0,0,0,56.30768186750035,-219.56143272552706Z"><title>Cellos</title></path><path fill="rgb(94, 79, 162)" display="" d="M104.22930232007062,-322.57906401047063A339,339,0,0,1,123.15116159179807,-315.83981920997684L82.1885735033362,-211.24113274470122A226.66666666666666,226.66666666666666,0,0,0,69.84881479277763,-215.63608429440103Z"><title>Clarinets</title></path><path fill="rgb(94, 79, 162)" display="" d="M124.08230431141648,-315.4751682094314A339,339,0,0,1,142.54858467852236,-307.5725946929442L95.1623723245189,-205.72287347630407A226.66666666666666,226.66666666666666,0,0,0,83.11971622295451,-210.87648174415585Z"><title>Cymbals</title></path><path fill="rgb(94, 79, 162)" display="" d="M143.45525597250196,-307.1507602690639A339,339,0,0,1,161.39451498363817,-298.11543155830793L107.76800641410452,-199.40871237563144A226.66666666666666,226.66666666666666,0,0,0,96.06904361849841,-205.30103905242376Z"><title>Double basses</title></path><path fill="rgb(94, 79, 162)" display="" d="M162.27320711687904,-297.63804570653A339,339,0,0,1,179.61604126394104,-287.50491773301934L119.95670702266166,-192.3230777053474A226.66666666666666,226.66666666666666,0,0,0,108.64669854734531,-198.93132652385356Z"><title>Flutes</title></path><path fill="rgb(94, 79, 162)" display="" d="M180.46335474728073,-286.97382736646404A339,339,0,0,1,197.14266797409715,-275.78210323379375L131.68131843540033,-184.493382409485A226.66666666666666,226.66666666666666,0,0,0,120.80402050600128,-191.7919873387921Z"><title>French Horns</title></path><path fill="rgb(94, 79, 162)" display="" d="M197.95532471627376,-275.1993630379159A339,339,0,0,1,213.90658800021325,-262.99234135257063L142.89648040847197,-175.94991805809107A226.66666666666666,226.66666666666666,0,0,0,132.49397517757697,-183.91064221360705Z"><title>Glockenspiel</title></path><path fill="rgb(94, 79, 162)" display="" d="M214.68144399016396,-262.3602058359806A339,339,0,0,1,229.84294499238808,-249.18511319343713L153.55880365894077,-166.72573765502628A226.66666666666666,226.66666666666666,0,0,0,143.67133639842268,-175.31778254150103Z"><title>Harps</title></path><path fill="rgb(94, 79, 162)" display="" d="M230.57700246281678,-248.5060279656455A339,339,0,0,1,244.8900842813301,-234.41383623984964L163.62703772949024,-156.85652776231456A226.66666666666666,226.66666666666666,0,0,0,154.2928611293695,-166.04665242723465Z"><title>Marimba</title></path><path fill="rgb(94, 79, 162)" display="" d="M245.580503306487,-233.69042854967876A339,339,0,0,1,258.98979140829584,-218.73565769276712L173.06223057842888,-146.3804704357671A226.66666666666666,226.66666666666666,0,0,0,164.31745675464717,-156.13312007214367Z"><title>Oboes</title></path><path fill="rgb(94, 79, 162)" display="" d="M259.63390089109845,-217.9707262640359A339,339,0,0,1,272.08751734552163,-202.21123337923257L181.8278792775726,-135.33809550602615A226.66666666666666,226.66666666666666,0,0,0,173.70634006123146,-145.6155390070359Z"><title>Piano</title></path><path fill="rgb(94, 79, 162)" display="" d="M272.6828253515102,-201.4077375830377A339,339,0,0,1,284.13258953581465,-184.90449308676162L189.89007123498234,-123.7721237765237A226.66666666666666,226.66666666666666,0,0,0,182.42318728356122,-134.53459970983124Z"><title>Pipe organ</title></path><path fill="rgb(94, 79, 162)" display="" d="M284.6767929339629,-184.06554149224567A339,339,0,0,1,295.07840793483297,-166.88239323141406L197.21761539619422,-111.72730174499243A226.66666666666666,226.66666666666666,0,0,0,190.43427463313063,-122.93317218200772Z"><title>Snare Drum</title></path><path fill="rgb(94, 79, 162)" display="" d="M295.5694013079143,-166.01123157931545A339,339,0,0,1,304.8826252976042,-148.21465781642746L203.78216291634993,-99.25022848795855A226.66666666666666,226.66666666666666,0,0,0,197.7086087692756,-110.85614009289381Z"><title>Tam-tam</title></path><path fill="rgb(94, 79, 162)" display="" d="M305.3185090876421,-147.31465646194007A339,339,0,0,1,313.5073110117895,-128.97350868359402L209.5583168363702,-86.38917537796765A226.66666666666666,226.66666666666666,0,0,0,204.21804670638784,-98.35022713347115Z"><title>Tambourine</title></path><path fill="rgb(94, 79, 162)" display="" d="M313.88639886907816,-128.0481495571176A339,339,0,0,1,320.9190978438541,-109.2333861009847L214.52373033885564,-73.1938993310216A226.66666666666666,226.66666666666666,0,0,0,209.93740469365892,-85.4638162514912Z"><title>Tenor drum</title></path><path fill="rgb(94, 79, 162)" display="" d="M321.2399231511181,-108.28624923721266A339,339,0,0,1,327.0893110304118,-89.0706607680135L218.65919320358202,-59.715450306736884A226.66666666666666,226.66666666666666,0,0,0,214.84455564611963,-72.24676246724955Z"><title>Timpani</title></path><path fill="rgb(94, 79, 162)" display="" d="M327.35063257686306,-88.10541045547417A339,339,0,0,1,331.9940792153137,-68.56333835203772L221.9487061281105,-46.00597380596806A226.66666666666666,226.66666666666666,0,0,0,218.92051475003333,-58.750199994197565Z"><title>Triangle</title></path><path fill="rgb(94, 79, 162)" display="" d="M332.1948859986553,-67.58370895667385A339,339,0,0,1,335.614426803288,-47.79075769958488L224.37954262598046,-32.11850912999514A226.66666666666666,226.66666666666666,0,0,0,222.1495129114521,-45.0263444106042Z"><title>Trombones</title></path><path fill="rgb(94, 79, 162)" display="" d="M335.7539419410853,-46.800539217217285A339,339,0,0,1,337.93634737283156,-26.833283889768495L225.94229826301347,-18.10678418177075A226.66666666666666,226.66666666666666,0,0,0,224.51905776377782,-31.12829064762756Z"><title>Trumpets</title></path><path fill="rgb(94, 79, 162)" display="" d="M338.0140311081197,-25.8363072833385A339,339,0,0,1,338.9508578643338,-5.7719973174092205L226.630927041242,-4.025007603101141A226.66666666666666,226.66666666666666,0,0,0,226.01998199830163,-17.109807575340756Z"><title>Tubas</title></path><path fill="rgb(94, 79, 162)" display="" d="M338.9664096538323,-4.772119695727259A339,339,0,0,1,338.6540333337892,15.311619991261415L226.442764789701,10.072340948057954A226.66666666666666,226.66666666666666,0,0,0,226.64647883074048,-3.0251299814191794Z"><title>Tubular bells</title></path><path fill="rgb(94, 79, 162)" display="" d="M338.6073930106457,16.310530295920472A339,339,0,0,1,337.0470221376431,36.33599961673123L225.37853947158794,24.130721568814373A226.66666666666666,226.66666666666666,0,0,0,226.3961244665575,11.071251252717012Z"><title>Vibraphone</title></path><path fill="rgb(94, 79, 162)" display="" d="M336.93837014420717,37.33007801445416A339,339,0,0,1,334.13604149002396,57.219802318576406L223.4423683679146,38.09574511562849A226.66666666666666,226.66666666666666,0,0,0,225.269887478152,25.124799966537296Z"><title>Violas</title></path><path fill="rgb(94, 79, 162)" display="" d="M333.9657981797507,58.20520291315923A339,339,0,0,1,329.93235340954936,77.88223272118114L220.6417421485465,51.91338362534354A226.66666666666666,226.66666666666666,0,0,0,223.2721250576413,39.0811457102113Z"><title>Violins 1</title></path><path fill="rgb(94, 79, 162)" display="" d="M329.7011774207335,78.85514318915442A339,339,0,0,1,324.45222114876395,98.24335189535003L216.98749589225665,65.53017933887924A226.66666666666666,226.66666666666666,0,0,0,220.4105661597306,52.886294093316806Z"><title>Violins 2</title></path><path fill="rgb(94, 79, 162)" display="" d="M324.1610068563962,99.20000823511774A339,339,0,0,1,317.7168462747748,118.2243866264956L212.49376716791045,78.8934515189165A226.66666666666666,226.66666666666666,0,0,0,216.69628159988895,66.48683567864694Z"><title>Wood block</title></path><path fill="rgb(94, 79, 162)" display="" d="M317.3667203303791,119.16108772052613A339,339,0,0,1,309.75228664450714,137.74803417290246L207.1779413389584,91.95150026143614A226.66666666666666,226.66666666666666,0,0,0,212.14364122351478,79.83015261294705Z"><title>Xylophone</title></path><path fill="rgb(253, 190, 112)" display="" d="M309.3446036173445,138.6611561066329A339,339,0,0,1,300.589355591918,156.73876133501727L201.06058430284227,104.65380651260342A226.66666666666666,226.66666666666666,0,0,0,206.77025831179571,92.86462219516672Z"><title>Bass Clarinet</title></path><path fill="rgb(253, 190, 112)" display="" d="M300.1256927284207,157.62477141707643A339,339,0,0,1,290.2635027171926,175.12309667872583L194.1653629255328,116.95122751717446A226.66666666666666,226.66666666666666,0,0,0,200.596921439345,105.53981659466258Z"><title>Bass Drum</title></path><path fill="rgb(253, 190, 112)" display="" d="M289.7456538389053,175.9785671082285A339,339,0,0,1,278.814676739129,192.82991478205605L186.51895347902365,128.79618694226778A226.66666666666666,226.66666666666666,0,0,0,193.6475140472455,117.8066979466772Z"><title>Bassoons</title></path><path fill="rgb(253, 190, 112)" display="" d="M278.24464530276066,193.65153591010036A339,339,0,0,1,266.2871709413052,209.79071140561993L178.1509384360169,140.1428589409546A226.66666666666666,226.66666666666666,0,0,0,185.9489220426553,129.6178080703121Z"><title>Cellos</title></path><path fill="rgb(253, 190, 112)" display="" d="M265.66716228774476,210.5753045396755A339,339,0,0,1,252.72945180996953,225.9398685222072L169.09369202108317,150.94734544355808A226.66666666666666,226.66666666666666,0,0,0,177.53092978245644,140.9274520750102Z"><title>Clarinets</title></path><path fill="rgb(253, 190, 112)" display="" d="M252.06186463225032,226.68439822385906A339,339,0,0,1,238.19397152662125,241.21490818018515L159.38225496107603,161.1678459907569A226.66666666666666,226.66666666666666,0,0,0,168.42610484336387,151.69187514520996Z"><title>Contrabassoon</title></path><path fill="rgb(253, 190, 112)" display="" d="M237.4813885898435,241.9164940086553A339,339,0,0,1,222.73696504070966,255.55673421855604L149.0541989193671,170.7648194514418A226.66666666666666,226.66666666666666,0,0,0,158.66967202429825,161.86943181922706Z"><title>Cornet</title></path><path fill="rgb(253, 190, 112)" display="" d="M221.9821431898243,256.2126618745692A339,339,0,0,1,206.41823250753959,268.9098608985236L138.14948113837931,179.7011369996705A226.66666666666666,226.66666666666666,0,0,0,148.29937706848173,171.420747107455Z"><title>Cymbals</title></path><path fill="rgb(253, 190, 112)" display="" d="M205.62409200165058,269.517592725404A339,339,0,0,1,189.30090793308756,281.22262756703753L126.71028985277849,187.9422257588822A226.66666666666666,226.66666666666666,0,0,0,137.3553406324903,180.30886882655088Z"><title>Double basses</title></path><path fill="rgb(253, 190, 112)" display="" d="M188.47052114753677,281.7798123684092A339,339,0,0,1,171.4512149207977,292.4473985218238L114.78088107138903,195.45620255764058A226.66666666666666,226.66666666666666,0,0,0,125.87990306722769,188.49941056025386Z"><title>English Horn</title></path><path fill="rgb(253, 190, 112)" display="" d="M170.5877944607414,292.95188065793303A339,339,0,0,1,152.93821046532472,302.54074730466317L102.40740735929346,202.21399727943043A226.66666666666666,226.66666666666666,0,0,0,113.91746061133283,195.96068469374976Z"><title>Flutes</title></path><path fill="rgb(253, 190, 112)" display="" d="M152.04509673678874,302.9905750321296A339,339,0,0,1,133.8335177844376,311.4636247099212L89.63773928252392,208.18946532929095A226.66666666666666,226.66666666666666,0,0,0,101.51429363075755,202.66382500689684Z"><title>French Horns</title></path><path fill="rgb(253, 190, 112)" display="" d="M132.9141660709349,311.8570577326541A339,339,0,0,1,114.21104922270375,319.18150985833927L76.5212802061419,213.3594887821746A226.66666666666666,226.66666666666666,0,0,0,88.7183875690213,208.58289835202382Z"><title>Glockenspiel</title></path><path fill="rgb(253, 190, 112)" display="" d="M113.26901631741401,319.5170260604048A339,339,0,0,1,94.14672029898671,325.6645437516101L63.10877516221631,217.70406582170807A226.66666666666666,226.66666666666666,0,0,0,75.57924730085224,213.6950049842401Z"><title>Harps</title></path><path fill="rgb(253, 190, 112)" display="" d="M93.18565074421441,325.9408450860022A339,339,0,0,1,73.7181560040516,330.8876447910413L49.45211452715243,221.2063881233342A226.66666666666666,226.66666666666666,0,0,0,62.147705607444095,217.9803671561002Z"><title>Oboes</title></path><path fill="rgb(253, 190, 112)" display="" d="M72.74176799119985,331.10366230157354A339,339,0,0,1,53.0043904845557,334.83060581338844L35.60413326790627,223.8529058824543A226.66666666666666,226.66666666666666,0,0,0,48.475726514300796,221.42240563386645Z"><title>Piccolo</title></path><path fill="rgb(253, 190, 112)" display="" d="M52.01646146916611,334.9855037702778A339,339,0,0,1,32.085561275288995,337.47817226844415L21.61840653376145,225.63338023598988A226.66666666666666,226.66666666666666,0,0,0,34.61620425251677,224.00780383934355Z"><title>Snare Drum</title></path><path fill="rgb(253, 190, 112)" display="" d="M31.0899133627999,337.5713514015868A339,339,0,0,1,11.042599262619985,338.82010123592903L7.549042384484576,226.5409228745549A226.66666666666666,226.66666666666666,0,0,0,20.62275862127245,225.72655936913253Z"><title>Tambourine</title></path><path fill="rgb(253, 190, 112)" display="" d="M10.043084421383083,338.8512010533605A339,339,0,0,1,-10.043084421381387,338.8512010533606L-6.549527543246632,226.57202269198646A226.66666666666666,226.66666666666666,0,0,0,6.549527543247765,226.5720226919864Z"><title>Timpani</title></path><path fill="rgb(253, 190, 112)" display="" d="M-11.042599262618287,338.8201012359291A339,339,0,0,1,-31.08991336279821,337.571351401587L-20.62275862127132,225.72655936913262A226.66666666666666,226.66666666666666,0,0,0,-7.549042384483442,226.54092287455492Z"><title>Triangle</title></path><path fill="rgb(253, 190, 112)" display="" d="M-32.085561275287304,337.4781722684443A339,339,0,0,1,-52.01646146916444,334.985503770278L-34.61620425251565,224.00780383934372A226.66666666666666,226.66666666666666,0,0,0,-21.61840653376032,225.63338023599002Z"><title>Trombones</title></path><path fill="rgb(253, 190, 112)" display="" d="M-53.00439048455402,334.83060581338873A339,339,0,0,1,-72.7417679911982,331.1036623015739L-48.47572651429968,221.42240563386667A226.66666666666666,226.66666666666666,0,0,0,-35.60413326790515,223.85290588245448Z"><title>Trumpets</title></path><path fill="rgb(253, 190, 112)" display="" d="M-73.71815600404993,330.8876447910417A339,339,0,0,1,-93.18565074421278,325.9408450860027L-62.147705607443,217.98036715610047A226.66666666666666,226.66666666666666,0,0,0,-49.45211452715132,221.20638812333445Z"><title>Tubas</title></path><path fill="rgb(253, 190, 112)" display="" d="M-94.1467202989851,325.66454375161055A339,339,0,0,1,-113.26901631741241,319.5170260604054L-75.57924730085118,213.69500498424046A226.66666666666666,226.66666666666666,0,0,0,-63.10877516221522,217.70406582170838Z"><title>Violas</title></path><path fill="rgb(253, 190, 112)" display="" d="M-114.21104922270214,319.18150985833984A339,339,0,0,1,-132.91416607093333,311.85705773265477L-88.71838756902025,208.58289835202427A226.66666666666666,226.66666666666666,0,0,0,-76.52128020614083,213.35948878217496Z"><title>Violins 1</title></path><path fill="rgb(253, 190, 112)" display="" d="M-133.83351778443603,311.4636247099218A339,339,0,0,1,-152.0450967367872,302.9905750321304L-101.5142936307565,202.66382500689738A226.66666666666666,226.66666666666666,0,0,0,-89.63773928252287,208.1894653292914Z"><title>Violins 2</title></path><path fill="rgb(190, 229, 160)" display="" d="M-152.93821046532415,302.54074730466345A339,339,0,0,1,-170.58779446074084,292.9518806579334L-113.91746061133243,195.96068469374998A226.66666666666666,226.66666666666666,0,0,0,-102.40740735929312,202.21399727943063Z"><title>Bass Clarinet</title></path><path fill="rgb(190, 229, 160)" display="" d="M-171.45121492079713,292.44739852182414A339,339,0,0,1,-188.4705211475362,281.7798123684096L-125.87990306722727,188.4994105602541A226.66666666666666,226.66666666666666,0,0,0,-114.7808810713887,195.45620255764078Z"><title>Bass Drum</title></path><path fill="rgb(190, 229, 160)" display="" d="M-189.30090793308707,281.2226275670379A339,339,0,0,1,-205.62409200165004,269.51759272540437L-137.35534063248994,180.30886882655113A226.66666666666666,226.66666666666666,0,0,0,-126.71028985277816,187.9422257588824Z"><title>Bassoons</title></path><path fill="rgb(190, 229, 160)" display="" d="M-206.4182325075391,268.909860898524A339,339,0,0,1,-221.98214318982377,256.2126618745697L-148.29937706848136,171.42074710745533A226.66666666666666,226.66666666666666,0,0,0,-138.149481138379,179.70113699967075Z"><title>Celesta</title></path><path fill="rgb(190, 229, 160)" display="" d="M-222.7369650407092,255.55673421855641A339,339,0,0,1,-237.481388589843,241.91649400865577L-158.66967202429794,161.86943181922737A226.66666666666666,226.66666666666666,0,0,0,-149.0541989193668,170.76481945144204Z"><title>Cellos</title></path><path fill="rgb(190, 229, 160)" display="" d="M-238.1939715266208,241.21490818018557A339,339,0,0,1,-252.06186463224984,226.68439822385957L-168.4261048433636,151.6918751452103A226.66666666666666,226.66666666666666,0,0,0,-159.38225496107574,161.16784599075717Z"><title>Chimes</title></path><path fill="rgb(190, 229, 160)" display="" d="M-252.72945180996913,225.93986852220766A339,339,0,0,1,-265.6671622877445,210.5753045396759L-177.53092978245624,140.92745207501048A226.66666666666666,226.66666666666666,0,0,0,-169.0936920210829,150.9473454435584Z"><title>Clarinets</title></path><path fill="rgb(190, 229, 160)" display="" d="M-266.2871709413049,209.7907114056203A339,339,0,0,1,-278.2446453027605,193.65153591010068L-185.94892204265517,129.61780807031232A226.66666666666666,226.66666666666666,0,0,0,-178.1509384360167,140.14285894095482Z"><title>Contrabassoon</title></path><path fill="rgb(190, 229, 160)" display="" d="M-278.81467673912886,192.8299147820563A339,339,0,0,1,-289.7456538389052,175.9785671082287L-193.6475140472454,117.80669794667733A226.66666666666666,226.66666666666666,0,0,0,-186.51895347902354,128.79618694226792Z"><title>Cymbals</title></path><path fill="rgb(190, 229, 160)" display="" d="M-290.2635027171925,175.12309667872594A339,339,0,0,1,-300.1256927284207,157.6247714170765L-200.59692143934498,105.53981659466264A226.66666666666666,226.66666666666666,0,0,0,-194.16536292553275,116.95122751717456Z"><title>Double basses</title></path><path fill="rgb(190, 229, 160)" display="" d="M-300.589355591918,156.73876133501727A339,339,0,0,1,-309.34460361734455,138.66115610663283L-206.77025831179571,92.86462219516667A226.66666666666666,226.66666666666666,0,0,0,-201.06058430284227,104.65380651260341Z"><title>English Horn</title></path><path fill="rgb(190, 229, 160)" display="" d="M-309.75228664450736,137.74803417290192A339,339,0,0,1,-317.36672033037934,119.16108772052557L-212.1436412235149,79.83015261294669A226.66666666666666,226.66666666666666,0,0,0,-207.17794133895853,91.95150026143577Z"><title>Flutes</title></path><path fill="rgb(190, 229, 160)" display="" d="M-317.71684627477504,118.22438662649496A339,339,0,0,1,-324.16100685639645,99.2000082351171L-216.6962815998891,66.48683567864653A226.66666666666666,226.66666666666666,0,0,0,-212.49376716791062,78.89345151891608Z"><title>French Horns</title></path><path fill="rgb(190, 229, 160)" display="" d="M-324.4522211487642,98.24335189534932A339,339,0,0,1,-329.70117742073364,78.85514318915368L-220.4105661597307,52.88629409331633A226.66666666666666,226.66666666666666,0,0,0,-216.98749589225682,65.53017933887874Z"><title>Glockenspiel</title></path><path fill="rgb(190, 229, 160)" display="" d="M-329.93235340954953,77.88223272118036A339,339,0,0,1,-333.96579817975083,58.2052029131584L-223.27212505764138,39.08114571021077A226.66666666666666,226.66666666666666,0,0,0,-220.64174214854663,51.913383625342995Z"><title>Harps</title></path><path fill="rgb(190, 229, 160)" display="" d="M-334.1360414900241,57.21980231857553A339,339,0,0,1,-336.9383701442073,37.33007801445326L-225.26988747815207,25.124799966536706A226.66666666666666,226.66666666666666,0,0,0,-223.4423683679147,38.095745115627885Z"><title>Oboes</title></path><path fill="rgb(190, 229, 160)" display="" d="M-337.04702213764324,36.33599961673027A339,339,0,0,1,-338.6073930106457,16.31053029591949L-226.39612446655752,11.071251252716369A226.66666666666666,226.66666666666666,0,0,0,-225.37853947158803,24.130721568813716Z"><title>Piano</title></path><path fill="rgb(190, 229, 160)" display="" d="M-338.65403333378924,15.311619991260374A339,339,0,0,1,-338.9664096538323,-4.772119695728317L-226.64647883074045,-3.025129981419872A226.66666666666666,226.66666666666666,0,0,0,-226.44276478970102,10.072340948057244Z"><title>Piccolo</title></path><path fill="rgb(190, 229, 160)" display="" d="M-338.9508578643338,-5.77199731741034A339,339,0,0,1,-338.0140311081196,-25.836307283339632L-226.01998199830157,-17.109807575341495A226.66666666666666,226.66666666666666,0,0,0,-226.630927041242,-4.025007603101903Z"><title>Snare Drum</title></path><path fill="rgb(190, 229, 160)" display="" d="M-337.9363473728315,-26.833283889769685A339,339,0,0,1,-335.7539419410852,-46.80053921721848L-224.5190577637777,-31.12829064762834A226.66666666666666,226.66666666666666,0,0,0,-225.94229826301344,-18.106784181771562Z"><title>Tam-tam</title></path><path fill="rgb(190, 229, 160)" display="" d="M-335.6144268032878,-47.79075769958614A339,339,0,0,1,-332.1948859986551,-67.5837089566751L-222.14951291145192,-45.02634441060503A226.66666666666666,226.66666666666666,0,0,0,-224.37954262598038,-32.118509129996Z"><title>Tambourine</title></path><path fill="rgb(190, 229, 160)" display="" d="M-331.99407921531343,-68.56333835203903A339,339,0,0,1,-327.3506325768627,-88.10541045547548L-218.92051475003308,-58.75019999419842A226.66666666666666,226.66666666666666,0,0,0,-221.9487061281103,-46.005973805968964Z"><title>Timpani</title></path><path fill="rgb(190, 229, 160)" display="" d="M-327.0893110304114,-89.07066076801487A339,339,0,0,1,-321.23992315111764,-108.28624923721401L-214.84455564611932,-72.24676246725045A226.66666666666666,226.66666666666666,0,0,0,-218.65919320358176,-59.715450306737814Z"><title>Triangle</title></path><path fill="rgb(190, 229, 160)" display="" d="M-320.91909784385365,-109.23338610098611A339,339,0,0,1,-313.8863988690776,-128.048149557119L-209.93740469365855,-85.46381625149212A226.66666666666666,226.66666666666666,0,0,0,-214.5237303388553,-73.19389933102255Z"><title>Trombones</title></path><path fill="rgb(190, 229, 160)" display="" d="M-313.5073110117889,-128.97350868359547A339,339,0,0,1,-305.3185090876414,-147.3146564619415L-204.21804670638738,-98.35022713347207A226.66666666666666,226.66666666666666,0,0,0,-209.5583168363698,-86.38917537796863Z"><title>Trumpets</title></path><path fill="rgb(190, 229, 160)" display="" d="M-304.88262529760345,-148.21465781642894A339,339,0,0,1,-295.5694013079135,-166.0112315793169L-197.70860876927503,-110.85614009289476A226.66666666666666,226.66666666666666,0,0,0,-203.78216291634948,-99.25022848795956Z"><title>Tubas</title></path><path fill="rgb(190, 229, 160)" display="" d="M-295.0784079348321,-166.88239323141556A339,339,0,0,1,-284.67679293396196,-184.06554149224718L-190.43427463312997,-122.93317218200873A226.66666666666666,226.66666666666666,0,0,0,-197.21761539619365,-111.72730174499343Z"><title>Violas</title></path><path fill="rgb(190, 229, 160)" display="" d="M-284.1325895358136,-184.90449308676315A339,339,0,0,1,-272.68282535150905,-201.40773758303922L-182.42318728356048,-134.53459970983224A226.66666666666666,226.66666666666666,0,0,0,-189.89007123498166,-123.77212377652474Z"><title>Violins 1</title></path><path fill="rgb(190, 229, 160)" display="" d="M-272.0875173455205,-202.21123337923416A339,339,0,0,1,-259.63390089109714,-217.97072626403744L-173.7063400612306,-145.6155390070369A226.66666666666666,226.66666666666666,0,0,0,-181.8278792775718,-135.3380955060272Z"><title>Violins 2</title></path><path fill="rgb(190, 229, 160)" display="" d="M-258.98979140829454,-218.73565769276868A339,339,0,0,1,-245.58050330648558,-233.69042854968032L-164.3174567546462,-156.1331200721447A226.66666666666666,226.66666666666666,0,0,0,-173.06223057842797,-146.38047043576816Z"><title>Wagner Tuba</title></path><path fill="rgb(190, 229, 160)" display="" d="M-244.8900842813286,-234.41383623985118A339,339,0,0,1,-230.57700246281516,-248.506027965647L-154.29286112936842,-166.04665242723567A226.66666666666666,226.66666666666666,0,0,0,-163.62703772948922,-156.8565277623156Z"><title>Xylophone</title></path><path fill="rgb(158, 1, 66)" display="" d="M-229.84294499238817,-249.18511319343705A339,339,0,0,1,-214.68144399016387,-262.36020583598065L-143.6713363984227,-175.317782541501A226.66666666666666,226.66666666666666,0,0,0,-153.55880365894083,-166.72573765502622Z"><title>Bassoons</title></path><path fill="rgb(158, 1, 66)" display="" d="M-213.90658800021342,-262.9923413525705A339,339,0,0,1,-197.95532471627362,-275.199363037916L-132.49397517757697,-183.91064221360708A226.66666666666666,226.66666666666666,0,0,0,-142.89648040847197,-175.94991805809107Z"><title>Cellos</title></path><path fill="rgb(158, 1, 66)" display="" d="M-197.14266797409718,-275.78210323379375A339,339,0,0,1,-180.46335474728048,-286.9738273664642L-120.80402050600121,-191.79198733879215A226.66666666666666,226.66666666666666,0,0,0,-131.68131843540024,-184.49338240948504Z"><title>Clarinets</title></path><path fill="rgb(158, 1, 66)" display="" d="M-179.61604126394104,-287.50491773301934A339,339,0,0,1,-162.2732071168787,-297.63804570653025L-108.64669854734521,-198.9313265238536A226.66666666666666,226.66666666666666,0,0,0,-119.95670702266152,-192.32307770534746Z"><title>Double basses</title></path><path fill="rgb(158, 1, 66)" display="" d="M-161.3945149836381,-298.115431558308A339,339,0,0,1,-143.45525597250148,-307.1507602690641L-96.06904361849821,-205.30103905242385A226.66666666666666,226.66666666666666,0,0,0,-107.76800641410433,-199.40871237563152Z"><title>Flutes</title></path><path fill="rgb(158, 1, 66)" display="" d="M-142.54858467852213,-307.57259469294434A339,339,0,0,1,-124.08230431141588,-315.4751682094317L-83.11971622295425,-210.87648174415594A226.66666666666666,226.66666666666666,0,0,0,-95.1623723245186,-205.72287347630422Z"><title>French Horns</title></path><path fill="rgb(158, 1, 66)" display="" d="M-123.15116159179777,-315.83981920997695A339,339,0,0,1,-104.22930232006986,-322.5790640104709L-69.84881479277728,-215.63608429440114A226.66666666666666,226.66666666666666,0,0,0,-82.18857350333585,-211.24113274470133Z"><title>Oboes</title></path><path fill="rgb(158, 1, 66)" display="" d="M-103.2772905851047,-322.88512082379987A339,339,0,0,1,-83.97305740638103,-328.43496407938153L-56.30768186749993,-219.56143272552717A226.66666666666666,226.66666666666666,0,0,0,-68.89680305781181,-215.9421411077302Z"><title>Timpani</title></path><path fill="rgb(158, 1, 66)" display="" d="M-83.00385980452673,-328.6812426311402A339,339,0,0,1,-63.3919370467967,-333.02021307640615L-42.54870545981228,-222.63734062702042A226.66666666666666,226.66666666666666,0,0,0,-55.33848426564533,-219.80771127728596Z"><title>Trumpets</title></path><path fill="rgb(158, 1, 66)" display="" d="M-62.409303215291544,-333.20576056272165A339,339,0,0,1,-42.5655655977517,-336.3170715639388L-28.625116376518015,-224.85190790875797A226.66666666666666,226.66666666666666,0,0,0,-41.56607162830683,-222.82288811333598Z"><title>Violas</title></path><path fill="rgb(158, 1, 66)" display="" d="M-41.57329715599628,-336.44117013763224A339,339,0,0,1,-21.574516244501762,-338.3127846369624L-14.590782278883879,-226.19656684014456A226.66666666666666,226.66666666666666,0,0,0,-27.63284793476229,-224.97600648245154Z"><title>Violins 1</title></path><path fill="rgb(158, 1, 66)" display="" d="M-20.576452086332022,-338.37495418476067A339,339,0,0,1,-0.49999927912246334,-338.9996312692993L-0.4999992791229969,-226.66611519699774A226.66666666666666,226.66666666666666,0,0,0,-13.592718120713833,-226.2587363879428Z"><title>Violins 2</title></path></g><g id="labels" transform="translate(450,350)" text-anchor="middle"><text transform="rotate(90) translate(56.666666666666664,0) rotate(180)"><tspan x="0" y="4" style="font-family: Arial, sans-serif; font-size: 10px; fill: black; font-weight: normal;"/></text><text transform="rotate(-32.97029702970297) translate(170,0) rotate(0)"><tspan x="0" y="4" style="font-family: Arial, sans-serif; font-size: 10px; fill: black; font-weight: normal;">Modern orchestra</tspan></text><text transform="rotate(70.39603960396039) translate(170,0) rotate(0)"><tspan x="0" y="4" style="font-family: Arial, sans-serif; font-size: 10px; fill: black; font-weight: normal;">Early Romantic orchestra</tspan></text><text transform="rotate(171.980198019802) translate(170,0) rotate(180)"><tspan x="0" y="4" style="font-family: Arial, sans-serif; font-size: 10px; fill: black; font-weight: normal;">Late Romantic orchestra</tspan></text><text transform="rotate(248.61386138613864) translate(170,0) rotate(180)"><tspan x="0" y="4" style="font-family: Arial, sans-serif; font-size: 10px; fill: black; font-weight: normal;">Classical orchestra</tspan></text><text transform="rotate(-88.21782178217822) translate(283.3333333333333,0) rotate(0)"><tspan x="0" y="4" style="font-family: Arial, sans-serif; font-size: 10px; fill: black; font-weight: normal;">Baritone horn</tspan></text><text transform="rotate(-84.65346534653466) translate(283.3333333333333,0) rotate(0)"><tspan x="0" y="4" style="font-family: Arial, sans-serif; font-size: 10px; fill: black; font-weight: normal;">Bass Drum</tspan></text><text transform="rotate(-81.08910891089108) translate(283.3333333333333,0) rotate(0)"><tspan x="0" y="4" style="font-family: Arial, sans-serif; font-size: 10px; fill: black; font-weight: normal;">Bassoons</tspan></text><text transform="rotate(-77.52475247524752) translate(283.3333333333333,0) rotate(0)"><tspan x="0" y="4" style="font-family: Arial, sans-serif; font-size: 10px; fill: black; font-weight: normal;">Celesta</tspan></text><text transform="rotate(-73.96039603960396) translate(283.3333333333333,0) rotate(0)"><tspan x="0" y="4" style="font-family: Arial, sans-serif; font-size: 10px; fill: black; font-weight: normal;">Cellos</tspan></text><text transform="rotate(-70.39603960396039) translate(283.3333333333333,0) rotate(0)"><tspan x="0" y="4" style="font-family: Arial, sans-serif; font-size: 10px; fill: black; font-weight: normal;">Clarinets</tspan></text><text transform="rotate(-66.83168316831683) translate(283.3333333333333,0) rotate(0)"><tspan x="0" y="4" style="font-family: Arial, sans-serif; font-size: 10px; fill: black; font-weight: normal;">Cymbals</tspan></text><text transform="rotate(-63.26732673267327) translate(283.3333333333333,0) rotate(0)"><tspan x="0" y="4" style="font-family: Arial, sans-serif; font-size: 10px; fill: black; font-weight: normal;">Double basses</tspan></text><text transform="rotate(-59.70297029702971) translate(283.3333333333333,0) rotate(0)"><tspan x="0" y="4" style="font-family: Arial, sans-serif; font-size: 10px; fill: black; font-weight: normal;">Flutes</tspan></text><text transform="rotate(-56.13861386138615) translate(283.3333333333333,0) rotate(0)"><tspan x="0" y="4" style="font-family: Arial, sans-serif; font-size: 10px; fill: black; font-weight: normal;">French Horns</tspan></text><text transform="rotate(-52.57425742574257) translate(283.3333333333333,0) rotate(0)"><tspan x="0" y="4" style="font-family: Arial, sans-serif; font-size: 10px; fill: black; font-weight: normal;">Glockenspiel</tspan></text><text transform="rotate(-49.00990099009902) translate(283.3333333333333,0) rotate(0)"><tspan x="0" y="4" style="font-family: Arial, sans-serif; font-size: 10px; fill: black; font-weight: normal;">Harps</tspan></text><text transform="rotate(-45.44554455445545) translate(283.3333333333333,0) rotate(0)"><tspan x="0" y="4" style="font-family: Arial, sans-serif; font-size: 10px; fill: black; font-weight: normal;">Marimba</tspan></text><text transform="rotate(-41.88118811881189) translate(283.3333333333333,0) rotate(0)"><tspan x="0" y="4" style="font-family: Arial, sans-serif; font-size: 10px; fill: black; font-weight: normal;">Oboes</tspan></text><text transform="rotate(-38.316831683168324) translate(283.3333333333333,0) rotate(0)"><tspan x="0" y="4" style="font-family: Arial, sans-serif; font-size: 10px; fill: black; font-weight: normal;">Piano</tspan></text><text transform="rotate(-34.752475247524764) translate(283.3333333333333,0) rotate(0)"><tspan x="0" y="4" style="font-family: Arial, sans-serif; font-size: 10px; fill: black; font-weight: normal;">Pipe organ</tspan></text><text transform="rotate(-31.188118811881196) translate(283.3333333333333,0) rotate(0)"><tspan x="0" y="4" style="font-family: Arial, sans-serif; font-size: 10px; fill: black; font-weight: normal;">Snare Drum</tspan></text><text transform="rotate(-27.623762376237636) translate(283.3333333333333,0) rotate(0)"><tspan x="0" y="4" style="font-family: Arial, sans-serif; font-size: 10px; fill: black; font-weight: normal;">Tam-tam</tspan></text><text transform="rotate(-24.05940594059406) translate(283.3333333333333,0) rotate(0)"><tspan x="0" y="4" style="font-family: Arial, sans-serif; font-size: 10px; fill: black; font-weight: normal;">Tambourine</tspan></text><text transform="rotate(-20.4950495049505) translate(283.3333333333333,0) rotate(0)"><tspan x="0" y="4" style="font-family: Arial, sans-serif; font-size: 10px; fill: black; font-weight: normal;">Tenor drum</tspan></text><text transform="rotate(-16.930693069306912) translate(283.3333333333333,0) rotate(0)"><tspan x="0" y="4" style="font-family: Arial, sans-serif; font-size: 10px; fill: black; font-weight: normal;">Timpani</tspan></text><text transform="rotate(-13.366336633663352) translate(283.3333333333333,0) rotate(0)"><tspan x="0" y="4" style="font-family: Arial, sans-serif; font-size: 10px; fill: black; font-weight: normal;">Triangle</tspan></text><text transform="rotate(-9.801980198019777) translate(283.3333333333333,0) rotate(0)"><tspan x="0" y="4" style="font-family: Arial, sans-serif; font-size: 10px; fill: black; font-weight: normal;">Trombones</tspan></text><text transform="rotate(-6.2376237623762165) translate(283.3333333333333,0) rotate(0)"><tspan x="0" y="4" style="font-family: Arial, sans-serif; font-size: 10px; fill: black; font-weight: normal;">Trumpets</tspan></text><text transform="rotate(-2.673267326732642) translate(283.3333333333333,0) rotate(0)"><tspan x="0" y="4" style="font-family: Arial, sans-serif; font-size: 10px; fill: black; font-weight: normal;">Tubas</tspan></text><text transform="rotate(0.8910891089109327) translate(283.3333333333333,0) rotate(0)"><tspan x="0" y="4" style="font-family: Arial, sans-serif; font-size: 10px; fill: black; font-weight: normal;">Tubular bells</tspan></text><text transform="rotate(4.455445544554493) translate(283.3333333333333,0) rotate(0)"><tspan x="0" y="4" style="font-family: Arial, sans-serif; font-size: 10px; fill: black; font-weight: normal;">Vibraphone</tspan></text><text transform="rotate(8.019801980198068) translate(283.3333333333333,0) rotate(0)"><tspan x="0" y="4" style="font-family: Arial, sans-serif; font-size: 10px; fill: black; font-weight: normal;">Violas</tspan></text><text transform="rotate(11.584158415841657) translate(283.3333333333333,0) rotate(0)"><tspan x="0" y="4" style="font-family: Arial, sans-serif; font-size: 10px; fill: black; font-weight: normal;">Violins 1</tspan></text><text transform="rotate(15.148514851485203) translate(283.3333333333333,0) rotate(0)"><tspan x="0" y="4" style="font-family: Arial, sans-serif; font-size: 10px; fill: black; font-weight: normal;">Violins 2</tspan></text><text transform="rotate(18.71287128712879) translate(283.3333333333333,0) rotate(0)"><tspan x="0" y="4" style="font-family: Arial, sans-serif; font-size: 10px; fill: black; font-weight: normal;">Wood block</tspan></text><text transform="rotate(22.277227722772338) translate(283.3333333333333,0) rotate(0)"><tspan x="0" y="4" style="font-family: Arial, sans-serif; font-size: 10px; fill: black; font-weight: normal;">Xylophone</tspan></text><text transform="rotate(25.841584158415813) translate(283.3333333333333,0) rotate(0)"><tspan x="0" y="4" style="font-family: Arial, sans-serif; font-size: 10px; fill: black; font-weight: normal;">Bass Clarinet</tspan></text><text transform="rotate(29.405940594059402) translate(283.3333333333333,0) rotate(0)"><tspan x="0" y="4" style="font-family: Arial, sans-serif; font-size: 10px; fill: black; font-weight: normal;">Bass Drum</tspan></text><text transform="rotate(32.970297029702934) translate(283.3333333333333,0) rotate(0)"><tspan x="0" y="4" style="font-family: Arial, sans-serif; font-size: 10px; fill: black; font-weight: normal;">Bassoons</tspan></text><text transform="rotate(36.53465346534652) translate(283.3333333333333,0) rotate(0)"><tspan x="0" y="4" style="font-family: Arial, sans-serif; font-size: 10px; fill: black; font-weight: normal;">Cellos</tspan></text><text transform="rotate(40.09900990099004) translate(283.3333333333333,0) rotate(0)"><tspan x="0" y="4" style="font-family: Arial, sans-serif; font-size: 10px; fill: black; font-weight: normal;">Clarinets</tspan></text><text transform="rotate(43.66336633663363) translate(283.3333333333333,0) rotate(0)"><tspan x="0" y="4" style="font-family: Arial, sans-serif; font-size: 10px; fill: black; font-weight: normal;">Contrabassoon</tspan></text><text transform="rotate(47.22772277227716) translate(283.3333333333333,0) rotate(0)"><tspan x="0" y="4" style="font-family: Arial, sans-serif; font-size: 10px; fill: black; font-weight: normal;">Cornet</tspan></text><text transform="rotate(50.79207920792075) translate(283.3333333333333,0) rotate(0)"><tspan x="0" y="4" style="font-family: Arial, sans-serif; font-size: 10px; fill: black; font-weight: normal;">Cymbals</tspan></text><text transform="rotate(54.35643564356428) translate(283.3333333333333,0) rotate(0)"><tspan x="0" y="4" style="font-family: Arial, sans-serif; font-size: 10px; fill: black; font-weight: normal;">Double basses</tspan></text><text transform="rotate(57.92079207920787) translate(283.3333333333333,0) rotate(0)"><tspan x="0" y="4" style="font-family: Arial, sans-serif; font-size: 10px; fill: black; font-weight: normal;">English Horn</tspan></text><text transform="rotate(61.4851485148514) translate(283.3333333333333,0) rotate(0)"><tspan x="0" y="4" style="font-family: Arial, sans-serif; font-size: 10px; fill: black; font-weight: normal;">Flutes</tspan></text><text transform="rotate(65.04950495049496) translate(283.3333333333333,0) rotate(0)"><tspan x="0" y="4" style="font-family: Arial, sans-serif; font-size: 10px; fill: black; font-weight: normal;">French Horns</tspan></text><text transform="rotate(68.6138613861385) translate(283.3333333333333,0) rotate(0)"><tspan x="0" y="4" style="font-family: Arial, sans-serif; font-size: 10px; fill: black; font-weight: normal;">Glockenspiel</tspan></text><text transform="rotate(72.17821782178208) translate(283.3333333333333,0) rotate(0)"><tspan x="0" y="4" style="font-family: Arial, sans-serif; font-size: 10px; fill: black; font-weight: normal;">Harps</tspan></text><text transform="rotate(75.74257425742562) translate(283.3333333333333,0) rotate(0)"><tspan x="0" y="4" style="font-family: Arial, sans-serif; font-size: 10px; fill: black; font-weight: normal;">Oboes</tspan></text><text transform="rotate(79.3069306930692) translate(283.3333333333333,0) rotate(0)"><tspan x="0" y="4" style="font-family: Arial, sans-serif; font-size: 10px; fill: black; font-weight: normal;">Piccolo</tspan></text><text transform="rotate(82.87128712871271) translate(283.3333333333333,0) rotate(0)"><tspan x="0" y="4" style="font-family: Arial, sans-serif; font-size: 10px; fill: black; font-weight: normal;">Snare Drum</tspan></text><text transform="rotate(86.4356435643563) translate(283.3333333333333,0) rotate(0)"><tspan x="0" y="4" style="font-family: Arial, sans-serif; font-size: 10px; fill: black; font-weight: normal;">Tambourine</tspan></text><text transform="rotate(89.99999999999986) translate(283.3333333333333,0) rotate(0)"><tspan x="0" y="4" style="font-family: Arial, sans-serif; font-size: 10px; fill: black; font-weight: normal;">Timpani</tspan></text><text transform="rotate(93.56435643564345) translate(283.3333333333333,0) rotate(180)"><tspan x="0" y="4" style="font-family: Arial, sans-serif; font-size: 10px; fill: black; font-weight: normal;">Triangle</tspan></text><text transform="rotate(97.12871287128695) translate(283.3333333333333,0) rotate(180)"><tspan x="0" y="4" style="font-family: Arial, sans-serif; font-size: 10px; fill: black; font-weight: normal;">Trombones</tspan></text><text transform="rotate(100.69306930693054) translate(283.3333333333333,0) rotate(180)"><tspan x="0" y="4" style="font-family: Arial, sans-serif; font-size: 10px; fill: black; font-weight: normal;">Trumpets</tspan></text><text transform="rotate(104.25742574257407) translate(283.3333333333333,0) rotate(180)"><tspan x="0" y="4" style="font-family: Arial, sans-serif; font-size: 10px; fill: black; font-weight: normal;">Tubas</tspan></text><text transform="rotate(107.82178217821766) translate(283.3333333333333,0) rotate(180)"><tspan x="0" y="4" style="font-family: Arial, sans-serif; font-size: 10px; fill: black; font-weight: normal;">Violas</tspan></text><text transform="rotate(111.38613861386119) translate(283.3333333333333,0) rotate(180)"><tspan x="0" y="4" style="font-family: Arial, sans-serif; font-size: 10px; fill: black; font-weight: normal;">Violins 1</tspan></text><text transform="rotate(114.95049504950478) translate(283.3333333333333,0) rotate(180)"><tspan x="0" y="4" style="font-family: Arial, sans-serif; font-size: 10px; fill: black; font-weight: normal;">Violins 2</tspan></text><text transform="rotate(118.51485148514851) translate(283.3333333333333,0) rotate(180)"><tspan x="0" y="4" style="font-family: Arial, sans-serif; font-size: 10px; fill: black; font-weight: normal;">Bass Clarinet</tspan></text><text transform="rotate(122.07920792079204) translate(283.3333333333333,0) rotate(180)"><tspan x="0" y="4" style="font-family: Arial, sans-serif; font-size: 10px; fill: black; font-weight: normal;">Bass Drum</tspan></text><text transform="rotate(125.64356435643563) translate(283.3333333333333,0) rotate(180)"><tspan x="0" y="4" style="font-family: Arial, sans-serif; font-size: 10px; fill: black; font-weight: normal;">Bassoons</tspan></text><text transform="rotate(129.20792079207914) translate(283.3333333333333,0) rotate(180)"><tspan x="0" y="4" style="font-family: Arial, sans-serif; font-size: 10px; fill: black; font-weight: normal;">Celesta</tspan></text><text transform="rotate(132.77227722772273) translate(283.3333333333333,0) rotate(180)"><tspan x="0" y="4" style="font-family: Arial, sans-serif; font-size: 10px; fill: black; font-weight: normal;">Cellos</tspan></text><text transform="rotate(136.33663366336629) translate(283.3333333333333,0) rotate(180)"><tspan x="0" y="4" style="font-family: Arial, sans-serif; font-size: 10px; fill: black; font-weight: normal;">Chimes</tspan></text><text transform="rotate(139.90099009900987) translate(283.3333333333333,0) rotate(180)"><tspan x="0" y="4" style="font-family: Arial, sans-serif; font-size: 10px; fill: black; font-weight: normal;">Clarinets</tspan></text><text transform="rotate(143.46534653465343) translate(283.3333333333333,0) rotate(180)"><tspan x="0" y="4" style="font-family: Arial, sans-serif; font-size: 10px; fill: black; font-weight: normal;">Contrabassoon</tspan></text><text transform="rotate(147.029702970297) translate(283.3333333333333,0) rotate(180)"><tspan x="0" y="4" style="font-family: Arial, sans-serif; font-size: 10px; fill: black; font-weight: normal;">Cymbals</tspan></text><text transform="rotate(150.59405940594058) translate(283.3333333333333,0) rotate(180)"><tspan x="0" y="4" style="font-family: Arial, sans-serif; font-size: 10px; fill: black; font-weight: normal;">Double basses</tspan></text><text transform="rotate(154.15841584158417) translate(283.3333333333333,0) rotate(180)"><tspan x="0" y="4" style="font-family: Arial, sans-serif; font-size: 10px; fill: black; font-weight: normal;">English Horn</tspan></text><text transform="rotate(157.72277227722776) translate(283.3333333333333,0) rotate(180)"><tspan x="0" y="4" style="font-family: Arial, sans-serif; font-size: 10px; fill: black; font-weight: normal;">Flutes</tspan></text><text transform="rotate(161.28712871287135) translate(283.3333333333333,0) rotate(180)"><tspan x="0" y="4" style="font-family: Arial, sans-serif; font-size: 10px; fill: black; font-weight: normal;">French Horns</tspan></text><text transform="rotate(164.85148514851494) translate(283.3333333333333,0) rotate(180)"><tspan x="0" y="4" style="font-family: Arial, sans-serif; font-size: 10px; fill: black; font-weight: normal;">Glockenspiel</tspan></text><text transform="rotate(168.4158415841585) translate(283.3333333333333,0) rotate(180)"><tspan x="0" y="4" style="font-family: Arial, sans-serif; font-size: 10px; fill: black; font-weight: normal;">Harps</tspan></text><text transform="rotate(171.98019801980212) translate(283.3333333333333,0) rotate(180)"><tspan x="0" y="4" style="font-family: Arial, sans-serif; font-size: 10px; fill: black; font-weight: normal;">Oboes</tspan></text><text transform="rotate(175.54455445544568) translate(283.3333333333333,0) rotate(180)"><tspan x="0" y="4" style="font-family: Arial, sans-serif; font-size: 10px; fill: black; font-weight: normal;">Piano</tspan></text><text transform="rotate(179.10891089108924) translate(283.3333333333333,0) rotate(180)"><tspan x="0" y="4" style="font-family: Arial, sans-serif; font-size: 10px; fill: black; font-weight: normal;">Piccolo</tspan></text><text transform="rotate(182.67326732673286) translate(283.3333333333333,0) rotate(180)"><tspan x="0" y="4" style="font-family: Arial, sans-serif; font-size: 10px; fill: black; font-weight: normal;">Snare Drum</tspan></text><text transform="rotate(186.23762376237642) translate(283.3333333333333,0) rotate(180)"><tspan x="0" y="4" style="font-family: Arial, sans-serif; font-size: 10px; fill: black; font-weight: normal;">Tam-tam</tspan></text><text transform="rotate(189.80198019802003) translate(283.3333333333333,0) rotate(180)"><tspan x="0" y="4" style="font-family: Arial, sans-serif; font-size: 10px; fill: black; font-weight: normal;">Tambourine</tspan></text><text transform="rotate(193.3663366336636) translate(283.3333333333333,0) rotate(180)"><tspan x="0" y="4" style="font-family: Arial, sans-serif; font-size: 10px; fill: black; font-weight: normal;">Timpani</tspan></text><text transform="rotate(196.93069306930715) translate(283.3333333333333,0) rotate(180)"><tspan x="0" y="4" style="font-family: Arial, sans-serif; font-size: 10px; fill: black; font-weight: normal;">Triangle</tspan></text><text transform="rotate(200.49504950495077) translate(283.3333333333333,0) rotate(180)"><tspan x="0" y="4" style="font-family: Arial, sans-serif; font-size: 10px; fill: black; font-weight: normal;">Trombones</tspan></text><text transform="rotate(204.05940594059433) translate(283.3333333333333,0) rotate(180)"><tspan x="0" y="4" style="font-family: Arial, sans-serif; font-size: 10px; fill: black; font-weight: normal;">Trumpets</tspan></text><text transform="rotate(207.6237623762379) translate(283.3333333333333,0) rotate(180)"><tspan x="0" y="4" style="font-family: Arial, sans-serif; font-size: 10px; fill: black; font-weight: normal;">Tubas</tspan></text><text transform="rotate(211.1881188118815) translate(283.3333333333333,0) rotate(180)"><tspan x="0" y="4" style="font-family: Arial, sans-serif; font-size: 10px; fill: black; font-weight: normal;">Violas</tspan></text><text transform="rotate(214.75247524752507) translate(283.3333333333333,0) rotate(180)"><tspan x="0" y="4" style="font-family: Arial, sans-serif; font-size: 10px; fill: black; font-weight: normal;">Violins 1</tspan></text><text transform="rotate(218.3168316831687) translate(283.3333333333333,0) rotate(180)"><tspan x="0" y="4" style="font-family: Arial, sans-serif; font-size: 10px; fill: black; font-weight: normal;">Violins 2</tspan></text><text transform="rotate(221.88118811881225) translate(283.3333333333333,0) rotate(180)"><tspan x="0" y="4" style="font-family: Arial, sans-serif; font-size: 10px; fill: black; font-weight: normal;">Wagner Tuba</tspan></text><text transform="rotate(225.44554455445586) translate(283.3333333333333,0) rotate(180)"><tspan x="0" y="4" style="font-family: Arial, sans-serif; font-size: 10px; fill: black; font-weight: normal;">Xylophone</tspan></text><text transform="rotate(229.00990099009897) translate(283.3333333333333,0) rotate(180)"><tspan x="0" y="4" style="font-family: Arial, sans-serif; font-size: 10px; fill: black; font-weight: normal;">Bassoons</tspan></text><text transform="rotate(232.5742574257426) translate(283.3333333333333,0) rotate(180)"><tspan x="0" y="4" style="font-family: Arial, sans-serif; font-size: 10px; fill: black; font-weight: normal;">Cellos</tspan></text><text transform="rotate(236.1386138613862) translate(283.3333333333333,0) rotate(180)"><tspan x="0" y="4" style="font-family: Arial, sans-serif; font-size: 10px; fill: black; font-weight: normal;">Clarinets</tspan></text><text transform="rotate(239.70297029702976) translate(283.3333333333333,0) rotate(180)"><tspan x="0" y="4" style="font-family: Arial, sans-serif; font-size: 10px; fill: black; font-weight: normal;">Double basses</tspan></text><text transform="rotate(243.26732673267333) translate(283.3333333333333,0) rotate(180)"><tspan x="0" y="4" style="font-family: Arial, sans-serif; font-size: 10px; fill: black; font-weight: normal;">Flutes</tspan></text><text transform="rotate(246.83168316831694) translate(283.3333333333333,0) rotate(180)"><tspan x="0" y="4" style="font-family: Arial, sans-serif; font-size: 10px; fill: black; font-weight: normal;">French Horns</tspan></text><text transform="rotate(250.3960396039605) translate(283.3333333333333,0) rotate(180)"><tspan x="0" y="4" style="font-family: Arial, sans-serif; font-size: 10px; fill: black; font-weight: normal;">Oboes</tspan></text><text transform="rotate(253.96039603960412) translate(283.3333333333333,0) rotate(180)"><tspan x="0" y="4" style="font-family: Arial, sans-serif; font-size: 10px; fill: black; font-weight: normal;">Timpani</tspan></text><text transform="rotate(257.5247524752477) translate(283.3333333333333,0) rotate(180)"><tspan x="0" y="4" style="font-family: Arial, sans-serif; font-size: 10px; fill: black; font-weight: normal;">Trumpets</tspan></text><text transform="rotate(261.0891089108913) translate(283.3333333333333,0) rotate(180)"><tspan x="0" y="4" style="font-family: Arial, sans-serif; font-size: 10px; fill: black; font-weight: normal;">Violas</tspan></text><text transform="rotate(264.6534653465348) translate(283.3333333333333,0) rotate(180)"><tspan x="0" y="4" style="font-family: Arial, sans-serif; font-size: 10px; fill: black; font-weight: normal;">Violins 1</tspan></text><text transform="rotate(268.21782178217836) translate(283.3333333333333,0) rotate(180)"><tspan x="0" y="4" style="font-family: Arial, sans-serif; font-size: 10px; fill: black; font-weight: normal;">Violins 2</tspan></text></g></svg>